<?xml version="1.0" encoding="UTF-8"?><svg id="Layer_2" xmlns="http://www.w3.org/2000/svg" viewBox="0 0 165.16 27.99"><defs><style>.cls-1{fill:#e54c3c;}.cls-2{fill:#861a4e;}</style></defs><g id="Layer_1-2"><g><path class="cls-2" d="M24.19,0c3.04,0,5.5,.93,7.38,2.82,1.89,1.88,2.84,4.12,2.84,6.72s-.95,4.9-2.84,6.83c-1.93,1.93-4.39,2.88-7.38,2.88H7.65v8.74H0V0H24.19ZM7.65,13.04h15.61c1.06,0,1.93-.33,2.62-1.02,.67-.69,1-1.51,1-2.42s-.33-1.71-1-2.37c-.64-.67-1.49-1-2.55-1H7.65v6.81Z"/><path class="cls-2" d="M75.29,0V27.99h-7.63v-11.29h-20.51v11.29h-7.63V0h7.63V10.47h20.51V0h7.63Z"/><path class="cls-1" d="M110.01,11.69l-2.08,6.23h-18.34v10.07h-7.65V0h31.69l-2.08,6.23h-21.95v5.46h20.43Z"/><path class="cls-2" d="M125.91,0V27.99h-7.63V0h7.63Z"/><path class="cls-2" d="M163.1,27.99h-21.05c-3.13,0-5.63-.93-7.56-2.82-1.89-1.89-2.82-4.04-2.82-6.5V9.31c0-2.53,.93-4.7,2.79-6.54,1.89-1.84,4.41-2.77,7.58-2.77h23.11l-2.06,6.14h-19.09c-1.33,0-2.46,.4-3.37,1.18-.87,.78-1.29,1.8-1.29,3.06v7.1c0,1.26,.44,2.28,1.31,3.04,.89,.75,2,1.13,3.35,1.15h21.16l-2.06,6.32Z"/></g></g></svg>